<mxfile host="app.diagrams.net" modified="2024-01-02T01:58:46.805Z" agent="Mozilla/5.0 (Windows NT 10.0; Win64; x64) AppleWebKit/537.36 (KHTML, like Gecko) Chrome/92.0.4515.131 Safari/537.36 Edg/92.0.902.67" etag="dHPCiVQ1dsFu-SOu2QAP" version="22.1.16" type="github">
  <diagram id="C5RBs43oDa-KdzZeNtuy" name="Page-1">
    <mxGraphModel dx="880" dy="522" grid="1" gridSize="10" guides="1" tooltips="1" connect="1" arrows="1" fold="1" page="1" pageScale="1" pageWidth="827" pageHeight="1169" background="#FFFFFF" math="0" shadow="0">
      <root>
        <mxCell id="WIyWlLk6GJQsqaUBKTNV-0" />
        <mxCell id="WIyWlLk6GJQsqaUBKTNV-1" parent="WIyWlLk6GJQsqaUBKTNV-0" />
        <mxCell id="gfOop3f7WUkyYNq6DT8l-3" style="edgeStyle=orthogonalEdgeStyle;rounded=0;orthogonalLoop=1;jettySize=auto;html=1;exitX=0.5;exitY=1;exitDx=0;exitDy=0;entryX=0.5;entryY=0;entryDx=0;entryDy=0;" edge="1" parent="WIyWlLk6GJQsqaUBKTNV-1" source="WIyWlLk6GJQsqaUBKTNV-3" target="gfOop3f7WUkyYNq6DT8l-1">
          <mxGeometry relative="1" as="geometry" />
        </mxCell>
        <mxCell id="WIyWlLk6GJQsqaUBKTNV-3" value="start" style="rounded=1;whiteSpace=wrap;html=1;fontSize=12;glass=0;strokeWidth=1;shadow=0;" parent="WIyWlLk6GJQsqaUBKTNV-1" vertex="1">
          <mxGeometry x="160" y="36" width="120" height="40" as="geometry" />
        </mxCell>
        <mxCell id="gfOop3f7WUkyYNq6DT8l-5" value="" style="edgeStyle=orthogonalEdgeStyle;rounded=0;orthogonalLoop=1;jettySize=auto;html=1;" edge="1" parent="WIyWlLk6GJQsqaUBKTNV-1" source="gfOop3f7WUkyYNq6DT8l-1" target="gfOop3f7WUkyYNq6DT8l-4">
          <mxGeometry relative="1" as="geometry" />
        </mxCell>
        <mxCell id="gfOop3f7WUkyYNq6DT8l-1" value="Generate a random word" style="rounded=1;whiteSpace=wrap;html=1;" vertex="1" parent="WIyWlLk6GJQsqaUBKTNV-1">
          <mxGeometry x="160" y="100" width="120" height="30" as="geometry" />
        </mxCell>
        <mxCell id="gfOop3f7WUkyYNq6DT8l-9" value="" style="edgeStyle=orthogonalEdgeStyle;rounded=0;orthogonalLoop=1;jettySize=auto;html=1;" edge="1" parent="WIyWlLk6GJQsqaUBKTNV-1" source="gfOop3f7WUkyYNq6DT8l-4" target="gfOop3f7WUkyYNq6DT8l-6">
          <mxGeometry relative="1" as="geometry" />
        </mxCell>
        <mxCell id="gfOop3f7WUkyYNq6DT8l-4" value="Generate blank spaces the same amount as the generated word" style="rounded=1;whiteSpace=wrap;html=1;" vertex="1" parent="WIyWlLk6GJQsqaUBKTNV-1">
          <mxGeometry x="160" y="144" width="120" height="70" as="geometry" />
        </mxCell>
        <mxCell id="gfOop3f7WUkyYNq6DT8l-11" value="" style="edgeStyle=orthogonalEdgeStyle;rounded=0;orthogonalLoop=1;jettySize=auto;html=1;exitX=0.5;exitY=1;exitDx=0;exitDy=0;" edge="1" parent="WIyWlLk6GJQsqaUBKTNV-1" source="gfOop3f7WUkyYNq6DT8l-6" target="gfOop3f7WUkyYNq6DT8l-10">
          <mxGeometry relative="1" as="geometry" />
        </mxCell>
        <mxCell id="gfOop3f7WUkyYNq6DT8l-6" value="give the user an option to guess a letter" style="rounded=1;whiteSpace=wrap;html=1;" vertex="1" parent="WIyWlLk6GJQsqaUBKTNV-1">
          <mxGeometry x="160" y="240" width="120" height="60" as="geometry" />
        </mxCell>
        <mxCell id="gfOop3f7WUkyYNq6DT8l-13" value="yes&amp;nbsp;" style="edgeStyle=orthogonalEdgeStyle;rounded=0;orthogonalLoop=1;jettySize=auto;html=1;entryX=0.468;entryY=-0.055;entryDx=0;entryDy=0;entryPerimeter=0;" edge="1" parent="WIyWlLk6GJQsqaUBKTNV-1" target="gfOop3f7WUkyYNq6DT8l-12">
          <mxGeometry relative="1" as="geometry">
            <mxPoint x="135.03000000000011" y="379.9999999999998" as="sourcePoint" />
            <mxPoint x="49.995517241379304" y="406" as="targetPoint" />
          </mxGeometry>
        </mxCell>
        <mxCell id="gfOop3f7WUkyYNq6DT8l-15" value="no" style="edgeStyle=orthogonalEdgeStyle;rounded=0;orthogonalLoop=1;jettySize=auto;html=1;" edge="1" parent="WIyWlLk6GJQsqaUBKTNV-1" source="gfOop3f7WUkyYNq6DT8l-10" target="gfOop3f7WUkyYNq6DT8l-14">
          <mxGeometry relative="1" as="geometry" />
        </mxCell>
        <mxCell id="gfOop3f7WUkyYNq6DT8l-10" value="if the letter is in the word" style="rhombus;whiteSpace=wrap;html=1;rounded=1;" vertex="1" parent="WIyWlLk6GJQsqaUBKTNV-1">
          <mxGeometry x="130" y="340" width="130" height="83" as="geometry" />
        </mxCell>
        <mxCell id="gfOop3f7WUkyYNq6DT8l-17" value="" style="edgeStyle=orthogonalEdgeStyle;rounded=0;orthogonalLoop=1;jettySize=auto;html=1;" edge="1" parent="WIyWlLk6GJQsqaUBKTNV-1" source="gfOop3f7WUkyYNq6DT8l-12" target="gfOop3f7WUkyYNq6DT8l-16">
          <mxGeometry relative="1" as="geometry" />
        </mxCell>
        <mxCell id="gfOop3f7WUkyYNq6DT8l-12" value="replace the blank with the letter" style="whiteSpace=wrap;html=1;rounded=1;" vertex="1" parent="WIyWlLk6GJQsqaUBKTNV-1">
          <mxGeometry x="50" y="449" width="120" height="51" as="geometry" />
        </mxCell>
        <mxCell id="gfOop3f7WUkyYNq6DT8l-19" value="" style="edgeStyle=orthogonalEdgeStyle;rounded=0;orthogonalLoop=1;jettySize=auto;html=1;" edge="1" parent="WIyWlLk6GJQsqaUBKTNV-1" source="gfOop3f7WUkyYNq6DT8l-14" target="gfOop3f7WUkyYNq6DT8l-18">
          <mxGeometry relative="1" as="geometry" />
        </mxCell>
        <mxCell id="gfOop3f7WUkyYNq6DT8l-14" value="lose a life" style="whiteSpace=wrap;html=1;rounded=1;" vertex="1" parent="WIyWlLk6GJQsqaUBKTNV-1">
          <mxGeometry x="268" y="449" width="120" height="60" as="geometry" />
        </mxCell>
        <mxCell id="gfOop3f7WUkyYNq6DT8l-22" value="no" style="edgeStyle=orthogonalEdgeStyle;rounded=0;orthogonalLoop=1;jettySize=auto;html=1;exitX=0.042;exitY=0.477;exitDx=0;exitDy=0;entryX=0;entryY=0.5;entryDx=0;entryDy=0;exitPerimeter=0;" edge="1" parent="WIyWlLk6GJQsqaUBKTNV-1" source="gfOop3f7WUkyYNq6DT8l-16" target="gfOop3f7WUkyYNq6DT8l-6">
          <mxGeometry relative="1" as="geometry">
            <mxPoint x="20" y="260" as="targetPoint" />
            <Array as="points">
              <mxPoint x="73" y="619" />
              <mxPoint x="30" y="619" />
              <mxPoint x="30" y="270" />
            </Array>
          </mxGeometry>
        </mxCell>
        <mxCell id="gfOop3f7WUkyYNq6DT8l-24" value="yes" style="edgeStyle=orthogonalEdgeStyle;rounded=0;orthogonalLoop=1;jettySize=auto;html=1;" edge="1" parent="WIyWlLk6GJQsqaUBKTNV-1" source="gfOop3f7WUkyYNq6DT8l-16" target="gfOop3f7WUkyYNq6DT8l-23">
          <mxGeometry relative="1" as="geometry" />
        </mxCell>
        <mxCell id="gfOop3f7WUkyYNq6DT8l-16" value="are all the blanks filled" style="rhombus;whiteSpace=wrap;html=1;rounded=1;" vertex="1" parent="WIyWlLk6GJQsqaUBKTNV-1">
          <mxGeometry x="70" y="581" width="80" height="80" as="geometry" />
        </mxCell>
        <mxCell id="gfOop3f7WUkyYNq6DT8l-21" value="yes" style="edgeStyle=orthogonalEdgeStyle;rounded=0;orthogonalLoop=1;jettySize=auto;html=1;exitX=1;exitY=0.5;exitDx=0;exitDy=0;entryX=1;entryY=0.5;entryDx=0;entryDy=0;" edge="1" parent="WIyWlLk6GJQsqaUBKTNV-1" source="gfOop3f7WUkyYNq6DT8l-18" target="gfOop3f7WUkyYNq6DT8l-6">
          <mxGeometry relative="1" as="geometry">
            <mxPoint x="490" y="250" as="targetPoint" />
            <Array as="points">
              <mxPoint x="368" y="620" />
              <mxPoint x="410" y="620" />
              <mxPoint x="410" y="270" />
            </Array>
          </mxGeometry>
        </mxCell>
        <mxCell id="gfOop3f7WUkyYNq6DT8l-26" value="yes" style="edgeStyle=orthogonalEdgeStyle;rounded=0;orthogonalLoop=1;jettySize=auto;html=1;" edge="1" parent="WIyWlLk6GJQsqaUBKTNV-1" source="gfOop3f7WUkyYNq6DT8l-18" target="gfOop3f7WUkyYNq6DT8l-25">
          <mxGeometry relative="1" as="geometry" />
        </mxCell>
        <mxCell id="gfOop3f7WUkyYNq6DT8l-18" value="has player life finish?" style="rhombus;whiteSpace=wrap;html=1;rounded=1;" vertex="1" parent="WIyWlLk6GJQsqaUBKTNV-1">
          <mxGeometry x="288" y="579" width="80" height="80" as="geometry" />
        </mxCell>
        <mxCell id="gfOop3f7WUkyYNq6DT8l-32" value="" style="edgeStyle=orthogonalEdgeStyle;rounded=0;orthogonalLoop=1;jettySize=auto;html=1;" edge="1" parent="WIyWlLk6GJQsqaUBKTNV-1" source="gfOop3f7WUkyYNq6DT8l-23" target="gfOop3f7WUkyYNq6DT8l-31">
          <mxGeometry relative="1" as="geometry" />
        </mxCell>
        <mxCell id="gfOop3f7WUkyYNq6DT8l-23" value="You win" style="whiteSpace=wrap;html=1;rounded=1;" vertex="1" parent="WIyWlLk6GJQsqaUBKTNV-1">
          <mxGeometry x="50" y="744" width="120" height="29" as="geometry" />
        </mxCell>
        <mxCell id="gfOop3f7WUkyYNq6DT8l-34" style="edgeStyle=orthogonalEdgeStyle;rounded=0;orthogonalLoop=1;jettySize=auto;html=1;entryX=0.5;entryY=0;entryDx=0;entryDy=0;" edge="1" parent="WIyWlLk6GJQsqaUBKTNV-1">
          <mxGeometry relative="1" as="geometry">
            <mxPoint x="328" y="765" as="sourcePoint" />
            <mxPoint x="220" y="855.5" as="targetPoint" />
            <Array as="points">
              <mxPoint x="328" y="813" />
              <mxPoint x="220" y="813" />
            </Array>
          </mxGeometry>
        </mxCell>
        <mxCell id="gfOop3f7WUkyYNq6DT8l-25" value="you fail" style="whiteSpace=wrap;html=1;rounded=1;" vertex="1" parent="WIyWlLk6GJQsqaUBKTNV-1">
          <mxGeometry x="268" y="741" width="120" height="21" as="geometry" />
        </mxCell>
        <mxCell id="gfOop3f7WUkyYNq6DT8l-31" value="GAME OVER" style="whiteSpace=wrap;html=1;rounded=1;" vertex="1" parent="WIyWlLk6GJQsqaUBKTNV-1">
          <mxGeometry x="160" y="852.5" width="120" height="42.5" as="geometry" />
        </mxCell>
      </root>
    </mxGraphModel>
  </diagram>
</mxfile>
